<svg xmlns="http://www.w3.org/2000/svg" width="108" height="108"><defs><filter id="b" y="0"><feOffset in="SourceAlpha" dy="3.4"/><feGaussianBlur stdDeviation="1.7"/><feComponentTransfer><feFuncA type="linear" slope=".08"/></feComponentTransfer><feMerge><feMergeNode/><feMergeNode in="SourceGraphic"/></feMerge></filter></defs><path d="M35.96 27.016L18 36.041v35.892l18.002 9.059L53.995 90l18.012-9.016L90 71.94V36.05l-17.993-9.052c-9.9-4.948-18.03-9.017-18.063-8.999-.027 0-8.12 4.06-17.977 9.016zm15.196 13.79l2.866 1.438 2.865-1.463 2.866-1.447v-3.502c0-1.916.061-3.544.174-3.588.234-.114 12.714 6.341 12.696 6.577-.026.113-4.22 2.308-9.31 4.913l-9.291 4.713-8.901-4.478c-4.898-2.456-9.18-4.635-9.527-4.844l-.608-.392 6.583-3.284 6.582-3.31.07 3.606.035 3.615zM38.902 52.018l9.362 4.748v19.13l-6.6-3.31c-3.647-1.83-6.6-3.363-6.6-3.423 0-.088 1.676-.959 3.735-1.96l3.716-1.813v-5.227l-2.978-1.48-2.988-1.499-3.517 1.768c-1.945.959-3.56 1.76-3.621 1.76-.07 0-.113-3.049-.113-6.733 0-3.694.07-6.734.157-6.734.06 0 4.315 2.134 9.465 4.747zm39.687 2.065l-.174 6.62-3.456-1.742-3.5-1.76-2.978 1.5-2.996 1.48v2.265c0 1.22.07 2.422.13 2.657.087.278 1.042.871 2.83 1.76 1.478.74 3.006 1.602 3.414 1.942l.712.592-6.426 3.276-6.426 3.258V56.687l9.474-4.669c5.175-2.597 9.465-4.67 9.465-4.652.053.043.035 3.049-.052 6.708z" fill="#F9FBFB" filter="url(#b)"/></svg>